<svg width="32" height="32" viewBox="0 0 32 33" fill="none" xmlns="http://www.w3.org/2000/svg" >
<path fill="rgb(211,202,202)" stroke="rgb(211,202,202)" stroke-width="1" opacity="1" d="M 329.5 0 L 332 0.5 L 329.5 1 L 329.5 0 Z " />
<path fill="rgb(211,202,202)" stroke="rgb(211,202,202)" stroke-width="1" opacity="1" d="M 9.5 3 L 8.5 5 L 9.5 3 Z " />
<path fill="rgb(211,202,202)" stroke="rgb(211,202,202)" stroke-width="1" opacity="1" d="M 35.5 4 L 37.5 7 L 35.5 4 Z " />
<path fill="rgb(211,202,202)" stroke="rgb(211,202,202)" stroke-width="1" opacity="1" d="M 83.5 4 L 85.5 7 L 83.5 4 Z " />
<path fill="rgb(211,202,202)" stroke="rgb(211,202,202)" stroke-width="1" opacity="1" d="M 132.5 8 L 131.5 10 L 132.5 8 Z " />
<path fill="rgb(211,202,202)" stroke="rgb(211,202,202)" stroke-width="1" opacity="1" d="M 222.5 10 L 218.5 15 L 222.5 10 Z " />
<path fill="rgb(211,202,202)" stroke="rgb(211,202,202)" stroke-width="1" opacity="1" d="M 148.5 12 L 152 12.5 L 148.5 13 L 148.5 12 Z " />
<path fill="rgb(211,202,202)" stroke="rgb(211,202,202)" stroke-width="1" opacity="1" d="M 249.5 12 L 254 12.5 L 249.5 13 L 249.5 12 Z " />
<path fill="rgb(211,202,202)" stroke="rgb(211,202,202)" stroke-width="1" opacity="1" d="M 335.5 12 L 340 12.5 L 335.5 13 L 335.5 12 Z " />
<path fill="rgb(211,202,202)" stroke="rgb(211,202,202)" stroke-width="1" opacity="1" d="M 51.5 16 L 52 20.5 L 51 20.5 L 51.5 16 Z " />
<path fill="rgb(211,202,202)" stroke="rgb(211,202,202)" stroke-width="1" opacity="1" d="M 318.5 19 L 316.5 22 L 318.5 19 Z " />
<path fill="rgb(211,202,202)" stroke="rgb(211,202,202)" stroke-width="1" opacity="1" d="M 85.5 31 L 83.5 34 L 85.5 31 Z " />
<path fill="rgb(211,202,202)" stroke="rgb(211,202,202)" stroke-width="1" opacity="1" d="M 49.5 37 L 52.5 41 L 49.5 37 Z " />
<path fill="rgb(211,202,202)" stroke="rgb(211,202,202)" stroke-width="1" opacity="1" d="M 169.5 37 L 170 89 L 184 89.5 L 170.5 90 L 169 88.5 L 169.5 37 Z " />
<path fill="rgb(211,202,202)" stroke="rgb(211,202,202)" stroke-width="1" opacity="1" d="M 222.5 43 L 223 49.5 L 222 49.5 L 222.5 43 Z " />
<path fill="rgb(211,202,202)" stroke="rgb(211,202,202)" stroke-width="1" opacity="1" d="M 207.5 46 L 208 49.5 L 207 49.5 L 207.5 46 Z " />
<path fill="rgb(211,202,202)" stroke="rgb(211,202,202)" stroke-width="1" opacity="1" d="M 17.5 51 L 22 51.5 L 17.5 52 L 17.5 51 Z " />
<path fill="rgb(211,202,202)" stroke="rgb(211,202,202)" stroke-width="1" opacity="1" d="M 4.5 58 L 3.5 60 L 4.5 58 Z " />
<path fill="rgb(211,202,202)" stroke="rgb(211,202,202)" stroke-width="1" opacity="1" d="M 46.5 66 L 47 70.5 L 46 70.5 L 46.5 66 Z " />
<path fill="rgb(211,202,202)" stroke="rgb(211,202,202)" stroke-width="1" opacity="1" d="M 38.5 68 L 39 72.5 L 38 72.5 L 38.5 68 Z " />
<path fill="rgb(211,202,202)" stroke="rgb(211,202,202)" stroke-width="1" opacity="1" d="M 229.5 69 L 230.5 71 L 229.5 69 Z " />
<path fill="rgb(211,202,202)" stroke="rgb(211,202,202)" stroke-width="1" opacity="1" d="M 232.5 72 L 233.5 74 L 232.5 72 Z " />
<path fill="rgb(211,202,202)" stroke="rgb(211,202,202)" stroke-width="1" opacity="1" d="M 272.5 72 L 273 84.5 L 272 84.5 L 272.5 72 Z " />
<path fill="rgb(211,202,202)" stroke="rgb(211,202,202)" stroke-width="1" opacity="1" d="M 303.5 78 L 307.5 83 L 303.5 78 Z " />
<path fill="rgb(211,202,202)" stroke="rgb(211,202,202)" stroke-width="1" opacity="1" d="M 85.5 81 L 84.5 83 L 85.5 81 Z " />
<path fill="rgb(211,202,202)" stroke="rgb(211,202,202)" stroke-width="1" opacity="1" d="M 34.5 82 L 31.5 86 L 34.5 82 Z " />
<path fill="rgb(211,202,202)" stroke="rgb(211,202,202)" stroke-width="1" opacity="1" d="M 82.5 84 L 81.5 86 L 82.5 84 Z " />
<path fill="rgb(211,202,202)" stroke="rgb(211,202,202)" stroke-width="1" opacity="1" d="M 112.5 89 L 127 89.5 L 112.5 90 L 112.5 89 Z " />
<path fill="rgb(211,202,202)" stroke="rgb(211,202,202)" stroke-width="1" opacity="1" d="M 243.5 91 L 254 91.5 L 243.5 92 L 243.5 91 Z " />
<path fill="rgb(211,202,202)" stroke="rgb(211,202,202)" stroke-width="1" opacity="1" d="M 329.5 91 L 340 91.5 L 329.5 92 L 329.5 91 Z " />
<path fill="rgb(211,202,202)" stroke="rgb(211,202,202)" stroke-width="1" opacity="1" d="M 0 110 L 3 110.5 L 0.5 112 L 0 110 Z " />
<path fill="rgb(211,202,202)" stroke="rgb(211,202,202)" stroke-width="1" opacity="1" d="M 13.5 110 L 17 110.5 L 13.5 111 L 13.5 110 Z " />
<path fill="rgb(211,202,202)" stroke="rgb(211,202,202)" stroke-width="1" opacity="1" d="M 26.5 110 L 29 110.5 L 26.5 111 L 26.5 110 Z " />
<path fill="rgb(211,202,202)" stroke="rgb(211,202,202)" stroke-width="1" opacity="1" d="M 77.5 110 L 80 110.5 L 77.5 111 L 77.5 110 Z " />
<path fill="rgb(211,202,202)" stroke="rgb(211,202,202)" stroke-width="1" opacity="1" d="M 120.5 110 L 123 110.5 L 120.5 111 L 120.5 110 Z " />
<path fill="rgb(211,202,202)" stroke="rgb(211,202,202)" stroke-width="1" opacity="1" d="M 180.5 110 L 183 110.5 L 180.5 111 L 180.5 110 Z " />
<path fill="rgb(211,202,202)" stroke="rgb(211,202,202)" stroke-width="1" opacity="1" d="M 202.5 110 L 205 110.5 L 202.5 111 L 202.5 110 Z " />
<path fill="rgb(211,202,202)" stroke="rgb(211,202,202)" stroke-width="1" opacity="1" d="M 314.5 110 L 317 110.5 L 314.5 111 L 314.5 110 Z " />
<path fill="rgb(211,202,202)" stroke="rgb(211,202,202)" stroke-width="1" opacity="1" d="M 190.5 113 L 191 116.5 L 190 116.5 L 190.5 113 Z " />
<path fill="rgb(211,202,202)" stroke="rgb(211,202,202)" stroke-width="1" opacity="1" d="M 14.5 115 L 15.5 117 L 14.5 115 Z " />
<path fill="rgb(211,202,202)" stroke="rgb(211,202,202)" stroke-width="1" opacity="1" d="M 69.5 117 L 67.5 120 L 69.5 117 Z " />
<path fill="rgb(211,202,202)" stroke="rgb(211,202,202)" stroke-width="1" opacity="1" d="M 136.5 117 L 137 118.5 L 134.5 120 L 134.5 119 Q 137 119.7 136.5 117 Z " />
<path fill="rgb(211,202,202)" stroke="rgb(211,202,202)" stroke-width="1" opacity="1" d="M 188.5 117 Q 193.1 120.4 191 130.5 L 190 130.5 L 190 120.5 Q 187 119.5 188.5 117 Z " />
<path fill="rgb(211,202,202)" stroke="rgb(211,202,202)" stroke-width="1" opacity="1" d="M 196.5 117 L 197 118.5 L 194.5 120 L 194.5 119 Q 197 119.7 196.5 117 Z " />
<path fill="rgb(211,202,202)" stroke="rgb(211,202,202)" stroke-width="1" opacity="1" d="M 206.5 117 L 205.5 119 L 206.5 117 Z " />
<path fill="rgb(211,202,202)" stroke="rgb(211,202,202)" stroke-width="1" opacity="1" d="M 234.5 117 L 235 140.5 L 234 140.5 L 234.5 117 Z " />
<path fill="rgb(211,202,202)" stroke="rgb(211,202,202)" stroke-width="1" opacity="1" d="M 304.5 117 L 306.5 120 L 304.5 117 Z " />
<path fill="rgb(211,202,202)" stroke="rgb(211,202,202)" stroke-width="1" opacity="1" d="M 344.5 117 L 345 134 L 348 134.5 L 345.5 135 L 344 133.5 L 344.5 117 Z " />
<path fill="rgb(211,202,202)" stroke="rgb(211,202,202)" stroke-width="1" opacity="1" d="M 246.5 118 L 247.5 120 L 246.5 118 Z " />
<path fill="rgb(211,202,202)" stroke="rgb(211,202,202)" stroke-width="1" opacity="1" d="M 40.5 119 L 43 119.5 L 40.5 120 L 40.5 119 Z " />
<path fill="rgb(211,202,202)" stroke="rgb(211,202,202)" stroke-width="1" opacity="1" d="M 72.5 119 L 75 119.5 L 72.5 120 L 72.5 119 Z " />
<path fill="rgb(211,202,202)" stroke="rgb(211,202,202)" stroke-width="1" opacity="1" d="M 93.5 119 L 96 119.5 L 93.5 120 L 93.5 119 Z " />
<path fill="rgb(211,202,202)" stroke="rgb(211,202,202)" stroke-width="1" opacity="1" d="M 260.5 119 L 264 119.5 L 260.5 120 L 260.5 119 Z " />
<path fill="rgb(211,202,202)" stroke="rgb(211,202,202)" stroke-width="1" opacity="1" d="M 280.5 119 L 283 119.5 L 280.5 120 L 280.5 119 Z " />
<path fill="rgb(211,202,202)" stroke="rgb(211,202,202)" stroke-width="1" opacity="1" d="M 299.5 119 L 302 119.5 L 299.5 120 L 299.5 119 Z " />
<path fill="rgb(211,202,202)" stroke="rgb(211,202,202)" stroke-width="1" opacity="1" d="M 329.5 119 L 332 119.5 L 329.5 120 L 329.5 119 Z " />
<path fill="rgb(211,202,202)" stroke="rgb(211,202,202)" stroke-width="1" opacity="1" d="M 91.5 120 L 90.5 122 L 91.5 120 Z " />
<path fill="rgb(211,202,202)" stroke="rgb(211,202,202)" stroke-width="1" opacity="1" d="M 215.5 120 L 216 122.5 L 215 122.5 L 215.5 120 Z " />
<path fill="rgb(211,202,202)" stroke="rgb(211,202,202)" stroke-width="1" opacity="1" d="M 333.5 120 L 334.5 122 L 333.5 120 Z " />
<path fill="rgb(211,202,202)" stroke="rgb(211,202,202)" stroke-width="1" opacity="1" d="M 212.5 122 L 213 134 L 216 134.5 L 213.5 135 L 212 133.5 L 212.5 122 Z " />
<path fill="rgb(211,202,202)" stroke="rgb(211,202,202)" stroke-width="1" opacity="1" d="M 255.5 122 L 258 122.5 L 255.5 123 L 255.5 122 Z " />
<path fill="rgb(211,202,202)" stroke="rgb(211,202,202)" stroke-width="1" opacity="1" d="M 86.5 123 L 87 127.5 L 86 127.5 L 86.5 123 Z " />
<path fill="rgb(211,202,202)" stroke="rgb(211,202,202)" stroke-width="1" opacity="1" d="M 338.5 123 L 339 127.5 L 338 127.5 L 338.5 123 Z " />
<path fill="rgb(211,202,202)" stroke="rgb(211,202,202)" stroke-width="1" opacity="1" d="M 77.5 124 L 78 127.5 L 77 127.5 L 77.5 124 Z " />
<path fill="rgb(211,202,202)" stroke="rgb(211,202,202)" stroke-width="1" opacity="1" d="M 237.5 124 L 238 127.5 L 237 127.5 L 237.5 124 Z " />
<path fill="rgb(211,202,202)" stroke="rgb(211,202,202)" stroke-width="1" opacity="1" d="M 167.5 126 L 169 129.5 L 168 129.5 L 167.5 126 Z " />
<path fill="rgb(211,202,202)" stroke="rgb(211,202,202)" stroke-width="1" opacity="1" d="M 8.5 127 L 7.5 129 L 8.5 127 Z " />
<path fill="rgb(211,202,202)" stroke="rgb(211,202,202)" stroke-width="1" opacity="1" d="M 307.5 128 L 308 130.5 L 307 130.5 L 307.5 128 Z " />
<path fill="rgb(211,202,202)" stroke="rgb(211,202,202)" stroke-width="1" opacity="1" d="M 285.5 129 L 286 130.5 L 284 131.5 L 285.5 129 Z " />
<path fill="rgb(211,202,202)" stroke="rgb(211,202,202)" stroke-width="1" opacity="1" d="M 76.5 130 L 75.5 132 L 76.5 130 Z " />
<path fill="rgb(211,202,202)" stroke="rgb(211,202,202)" stroke-width="1" opacity="1" d="M 238.5 130 L 239.5 132 L 238.5 130 Z " />
<path fill="rgb(211,202,202)" stroke="rgb(211,202,202)" stroke-width="1" opacity="1" d="M 35.5 132 L 36.5 134 L 35.5 132 Z " />
<path fill="rgb(211,202,202)" stroke="rgb(211,202,202)" stroke-width="1" opacity="1" d="M 88.5 132 L 89.5 134 L 88.5 132 Z " />
<path fill="rgb(211,202,202)" stroke="rgb(211,202,202)" stroke-width="1" opacity="1" d="M 287.5 132 L 286.5 134 L 287.5 132 Z " />
<path fill="rgb(211,202,202)" stroke="rgb(211,202,202)" stroke-width="1" opacity="1" d="M 306.5 132 L 305.5 134 L 306.5 132 Z " />
<path fill="rgb(211,202,202)" stroke="rgb(211,202,202)" stroke-width="1" opacity="1" d="M 23.5 133 L 22.5 135 L 20 134.5 L 23.5 133 Z " />
<path fill="rgb(211,202,202)" stroke="rgb(211,202,202)" stroke-width="1" opacity="1" d="M 77.5 133 L 80 134.5 L 77 135 L 77.5 133 Z " />
<path fill="rgb(211,202,202)" stroke="rgb(211,202,202)" stroke-width="1" opacity="1" d="M 160.5 133 L 159.5 135 L 157 134.5 L 160.5 133 Z " />
<path fill="rgb(211,202,202)" stroke="rgb(211,202,202)" stroke-width="1" opacity="1" d="M 191.5 133 L 192.5 135 L 191.5 133 Z " />
<path fill="rgb(211,202,202)" stroke="rgb(211,202,202)" stroke-width="1" opacity="1" d="M 6.5 134 L 10 134.5 L 6.5 135 L 6.5 134 Z " />
<path fill="rgb(211,202,202)" stroke="rgb(211,202,202)" stroke-width="1" opacity="1" d="M 120.5 134 L 123 134.5 L 120.5 135 L 120.5 134 Z " />
<path fill="rgb(211,202,202)" stroke="rgb(211,202,202)" stroke-width="1" opacity="1" d="M 167.5 134 L 170 134.5 L 167.5 135 L 167.5 134 Z " />
<path fill="rgb(211,202,202)" stroke="rgb(211,202,202)" stroke-width="1" opacity="1" d="M 180.5 134 L 183 134.5 L 180.5 135 L 180.5 134 Z " />
<path fill="rgb(211,202,202)" stroke="rgb(211,202,202)" stroke-width="1" opacity="1" d="M 202.5 134 L 205 134.5 L 202.5 135 L 202.5 134 Z " />
<path fill="rgb(211,202,202)" stroke="rgb(211,202,202)" stroke-width="1" opacity="1" d="M 266.5 134 L 270 134.5 L 266.5 135 L 266.5 134 Z " />
<path fill="rgb(211,202,202)" stroke="rgb(211,202,202)" stroke-width="1" opacity="1" d="M 314.5 134 L 317 134.5 L 314.5 135 L 314.5 134 Z " />
<path fill="rgb(211,202,202)" stroke="rgb(211,202,202)" stroke-width="1" opacity="1" d="M 355.5 134 L 358 134.5 L 355.5 135 L 355.5 134 Z " />
<path fill="rgb(53,53,53)" stroke="rgb(53,53,53)" stroke-width="1" opacity="1" d="M 153.5 0 L 156 0.5 L 153.5 1 L 153.5 0 Z " />
<path fill="rgb(53,53,53)" stroke="rgb(53,53,53)" stroke-width="1" opacity="1" d="M 250.5 0 L 254 0.5 L 250.5 1 L 250.5 0 Z " />
<path fill="rgb(53,53,53)" stroke="rgb(53,53,53)" stroke-width="1" opacity="1" d="M 336.5 0 L 340 0.5 L 336.5 1 L 336.5 0 Z " />
<path fill="rgb(53,53,53)" stroke="rgb(53,53,53)" stroke-width="1" opacity="1" d="M 113.5 2 L 126 2.5 L 113.5 3 L 113.5 2 Z " />
<path fill="rgb(53,53,53)" stroke="rgb(53,53,53)" stroke-width="1" opacity="1" d="M 308.5 10 L 305.5 14 L 308.5 10 Z " />
<path fill="rgb(53,53,53)" stroke="rgb(53,53,53)" stroke-width="1" opacity="1" d="M 135.5 17 L 133.5 20 L 135.5 17 Z " />
<path fill="rgb(53,53,53)" stroke="rgb(53,53,53)" stroke-width="1" opacity="1" d="M 232.5 19 L 230.5 22 L 232.5 19 Z " />
<path fill="rgb(53,53,53)" stroke="rgb(53,53,53)" stroke-width="1" opacity="1" d="M 183.5 33 L 184 88.5 L 183 88.5 L 183.5 33 Z " />
<path fill="rgb(53,53,53)" stroke="rgb(53,53,53)" stroke-width="1" opacity="1" d="M 307.5 43 L 308 49.5 L 307 49.5 L 307.5 43 Z " />
<path fill="rgb(53,53,53)" stroke="rgb(53,53,53)" stroke-width="1" opacity="1" d="M 248.5 79 L 254 79.5 L 248.5 80 L 248.5 79 Z " />
<path fill="rgb(53,53,53)" stroke="rgb(53,53,53)" stroke-width="1" opacity="1" d="M 334.5 79 L 339 79.5 L 334.5 80 L 334.5 79 Z " />
<path fill="rgb(53,53,53)" stroke="rgb(53,53,53)" stroke-width="1" opacity="1" d="M 180.5 111 L 181 113.5 L 180 113.5 L 180.5 111 Z " />
<path fill="rgb(53,53,53)" stroke="rgb(53,53,53)" stroke-width="1" opacity="1" d="M 202.5 111 L 203 133.5 L 202 133.5 L 202.5 111 Z " />
<path fill="rgb(53,53,53)" stroke="rgb(53,53,53)" stroke-width="1" opacity="1" d="M 162.5 117 L 165 117.5 L 162.5 118 L 162.5 117 Z " />
<path fill="rgb(53,53,53)" stroke="rgb(53,53,53)" stroke-width="1" opacity="1" d="M 181.5 117 L 183 117.5 L 181 118 L 180.5 134 L 180 118.5 L 181.5 117 Z " />
<path fill="rgb(53,53,53)" stroke="rgb(53,53,53)" stroke-width="1" opacity="1" d="M 193.5 117 L 196 117.5 L 193.5 118 L 193.5 117 Z " />
<path fill="rgb(53,53,53)" stroke="rgb(53,53,53)" stroke-width="1" opacity="1" d="M 238.5 118 L 238.5 121 Q 235.5 119.5 238.5 118 Z " />
<path fill="rgb(53,53,53)" stroke="rgb(53,53,53)" stroke-width="1" opacity="1" d="M 348.5 118 L 348.5 121 Q 345.5 119.5 348.5 118 Z " />
<path fill="rgb(53,53,53)" stroke="rgb(53,53,53)" stroke-width="1" opacity="1" d="M 43.5 119 L 44.5 121 L 43.5 119 Z " />
<path fill="rgb(53,53,53)" stroke="rgb(53,53,53)" stroke-width="1" opacity="1" d="M 36.5 124 L 46 124.5 L 36.5 125 L 36.5 124 Z " />
<path fill="rgb(53,53,53)" stroke="rgb(53,53,53)" stroke-width="1" opacity="1" d="M 68.5 124 L 69 126.5 L 68 126.5 L 68.5 124 Z " />
<path fill="rgb(53,53,53)" stroke="rgb(53,53,53)" stroke-width="1" opacity="1" d="M 255.5 132 L 256.5 134 L 255.5 132 Z " />
<path fill="rgb(255,255,255)" stroke="rgb(255,255,255)" stroke-width="1" opacity="1" d="M 0 0 L 16 0.5 Q 7.8 2.3 4 8.5 L 0.5 16 L 0 0 Z " />
<path fill="rgb(255,255,255)" stroke="rgb(255,255,255)" stroke-width="1" opacity="1" d="M 28.5 0 L 65 0.5 Q 58.4 2.4 55 7.5 L 51 16.5 L 51 20.5 Q 52.5 30.5 59.5 35 Q 64.3 39.7 75.5 38 L 86 31.5 Q 91.5 26.5 90 14.5 L 83.5 4 L 76 0.5 L 147.5 0 L 147.5 1 Q 136.3 2.3 131 9.5 L 127.5 15 L 127 2 L 112.5 2 L 112 2.5 L 112 90 L 126.5 90 L 127 89.5 L 127 33.5 Q 129.1 22.6 136.5 17 Q 142.2 11.2 155.5 13 Q 162 14.5 165 19.5 L 169 30.5 L 169 88.5 L 170.5 90 L 183.5 90 L 184 89.5 L 184 27.5 L 182 18.5 L 179 12.5 L 172.5 5 L 162 0.5 L 243.5 0 L 243.5 1 Q 226.3 3.3 218 14.5 L 210 28.5 L 208 36.5 L 207 49.5 L 210 65.5 Q 214.4 77.1 223.5 84 Q 233.6 92.9 253.5 92 L 266.5 89 L 273 84.5 L 273 72.5 L 270.5 72 Q 262.9 79.9 246.5 79 L 241.5 78 L 231 72 L 225 62.5 L 223 55.5 L 223 38.5 Q 225.3 24.8 234.5 18 Q 242 11 258.5 13 L 273 19 L 273 4.5 L 271.5 4 Q 267.9 0.6 261 0.5 L 328.5 0 L 328.5 1 Q 310.5 4 302 16.5 L 294 33.5 L 293 55.5 L 297 69.5 L 307.5 83 L 323.5 91 L 339.5 92 L 351.5 89 L 358 86 L 357.5 119 Q 356 115.5 349.5 117 L 347.5 117 L 344 117.5 L 344 133.5 L 348 135 L 348 121.5 L 349.5 120 Q 354 119 355 121.5 L 355 134.5 L 358 135 L 358 141 L 238.5 141 Q 237.3 140.8 238 134.5 L 239.5 135 Q 246.4 135.9 248 131.5 Q 250.3 128.3 249 121.5 L 246.5 118 L 239.5 117 L 237.5 117 L 234 117.5 L 234 140.5 L 233.5 141 L 0 141 L 0.5 112 L 6 135 Q 11.6 137.2 10 131.5 L 14.5 116 L 16 117.5 L 20 135 L 24 133.5 L 29 110 Q 24.9 108.3 26 112.5 L 21.5 128 L 17 110 L 13 110 L 13 111.5 L 9 126.5 L 7.5 128 L 5 114.5 L 2.5 110 L 0 109.5 L 0 76.5 L 1 76.5 Q 2.8 83.7 8.5 87 Q 13.3 91.2 23.5 90 Q 30.9 87.9 35 82.5 Q 39 77.5 39 68.5 Q 37 58.5 29.5 54 Q 25.2 50.8 17.5 51 Q 7.5 52.5 3 59.5 L 0.5 66 L 0 27.5 L 1 27.5 Q 3.1 35.4 9.5 39 L 17.5 43 L 33.5 46 L 43 53.5 L 46 60.5 L 46 70.5 L 48 78.5 L 54.5 86 L 63.5 90 L 72.5 90 Q 81.4 87.9 86 81.5 Q 91.8 75.8 90 62.5 Q 87.9 54.6 81.5 51 L 73.5 47 L 58.5 44 L 48 35.5 Q 43.4 27.6 43 15.5 L 35.5 4 L 28.5 1 L 28.5 0 Z M 77 110 L 77 118 Q 75 116 70 117 L 66 122 Q 64 132 71 135 Q 75 136 77 134 L 80 135 L 80 111 L 77 110 Z M 120 110 Q 118 116 123 114 Q 125 108 120 110 Z M 180 110 Q 178 116 183 114 Q 185 108 180 110 Z M 202 110 L 202 135 L 205 135 L 205 124 L 208 120 Q 212 119 212 121 L 212 134 L 216 135 L 216 121 L 215 118 Q 213 116 207 117 L 205 118 L 205 110 L 202 110 Z M 314 110 Q 312 116 317 114 Q 319 108 314 110 Z M 134 111 L 133 112 L 131 112 L 131 117 L 129 117 Q 128 121 131 121 L 131 134 L 137 135 L 137 132 L 134 132 L 134 120 L 137 119 Q 138 115 134 117 L 134 111 Z M 194 111 L 190 114 Q 191 118 188 117 L 190 121 Q 189 129 191 134 Q 192 136 197 135 L 197 132 L 194 132 L 194 120 L 197 119 Q 198 115 194 117 L 194 111 Z M 38 117 L 33 124 Q 32 130 35 133 Q 37 136 45 135 L 49 130 L 45 129 L 44 132 Q 38 133 37 130 L 38 127 L 49 127 L 48 121 Q 46 115 38 117 Z M 91 117 L 86 124 Q 85 130 88 133 L 92 135 L 99 134 Q 104 131 102 122 Q 100 115 91 117 Z M 120 117 L 120 135 L 123 135 L 123 118 L 120 117 Z M 152 117 L 157 134 Q 156 136 160 135 L 161 134 L 164 123 L 166 134 L 170 135 L 175 119 Q 176 116 173 117 L 169 128 L 166 119 L 163 117 L 161 119 L 159 129 L 156 119 L 152 117 Z M 180 117 L 180 135 L 183 135 L 183 118 L 180 117 Z M 259 117 L 256 118 L 255 123 Q 259 124 258 122 Q 260 118 265 120 L 266 123 L 265 124 Q 258 123 255 126 L 254 129 Q 253 134 258 135 Q 264 136 266 133 L 266 135 L 270 135 L 269 134 L 269 121 L 268 119 L 267 117 L 259 117 Z M 279 117 L 276 118 L 275 124 Q 278 128 285 128 L 284 132 Q 278 134 279 131 L 275 129 Q 274 134 279 135 L 287 134 Q 290 133 289 128 Q 286 123 280 123 Q 277 122 280 120 Q 285 119 286 122 Q 289 123 288 120 Q 286 115 279 117 Z M 298 117 L 295 118 L 294 124 Q 297 128 304 128 L 303 132 Q 298 133 297 131 Q 298 127 294 129 Q 293 134 298 135 L 306 134 L 308 131 L 307 127 Q 304 123 299 123 Q 296 122 299 120 Q 304 119 305 122 Q 308 123 307 120 Q 305 115 298 117 Z M 314 117 L 314 135 L 317 135 L 317 118 L 314 117 Z M 328 117 L 325 118 L 323 122 Q 322 128 324 132 L 329 135 L 334 135 L 337 133 L 339 128 Q 340 122 337 120 Q 335 115 328 117 Z " />
<path fill="rgb(255,255,255)" stroke="rgb(255,255,255)" stroke-width="1" opacity="1" d="M 346.5 0 L 357.5 0 L 358 3.5 L 356.5 3 L 346.5 1 L 346.5 0 Z " />
<path fill="rgb(255,255,255)" stroke="rgb(255,255,255)" stroke-width="1" opacity="1" d="M 330.5 13 L 344.5 13 L 358 19 L 358 71.5 L 356.5 72 Q 348.6 80.1 331.5 79 Q 319.7 76.8 314 68.5 Q 306.6 58.9 308 40.5 L 312 27.5 L 321.5 17 L 330.5 13 Z " />
<path fill="rgb(255,255,255)" stroke="rgb(255,255,255)" stroke-width="1" opacity="1" d="M 241.5 119 L 245 121.5 L 246 128.5 L 243.5 132 Q 238.8 132.8 238 129.5 Q 237.1 122.7 239 120 L 241.5 119 Z " />
<path fill="rgb(255,255,255)" stroke="rgb(255,255,255)" stroke-width="1" opacity="1" d="M 38 120 Q 43.4 118.5 45 121.5 L 45 124 L 37 124 L 38 120 Z " />
<path fill="rgb(255,255,255)" stroke="rgb(255,255,255)" stroke-width="1" opacity="1" d="M 71.5 120 Q 76.9 118.1 76 121.5 Q 78.8 123.3 77 129.5 Q 76.3 132.8 71.5 132 Q 68 130 69 123.5 L 71.5 120 Z " />
<path fill="rgb(255,255,255)" stroke="rgb(255,255,255)" stroke-width="1" opacity="1" d="M 92.5 120 Q 97 119 98 121.5 L 99 127.5 L 98 131 L 92.5 132 Q 88.3 130.3 90 122.5 L 92.5 120 Z " />
<path fill="rgb(255,255,255)" stroke="rgb(255,255,255)" stroke-width="1" opacity="1" d="M 328.5 120 Q 334 119 335 122.5 Q 336.8 130.2 332.5 132 Q 328 133 327 130.5 L 326 123.5 L 328.5 120 Z " />
<path fill="rgb(255,255,255)" stroke="rgb(255,255,255)" stroke-width="1" opacity="1" d="M 265.5 126 L 266 127.5 L 263.5 132 Q 255.7 134.4 258 128 L 265.5 126 Z " />
<path fill="rgb(0,0,0)" stroke="rgb(0,0,0)" stroke-width="1" opacity="1" d="M 146.5 1 Q 169.7 -2.2 177 10.5 Q 181.5 16.5 183 25.5 L 183 89 L 170.5 89 L 170 88.5 L 170 32.5 L 167 21.5 L 161.5 15 Q 156.3 10.7 145.5 12 Q 137.8 14.3 133 19.5 L 128 27.5 L 126 35.5 L 126 89 L 113.5 89 L 113 88.5 L 113 3 L 126 3 L 126 15.5 L 128 16 L 134.5 7 L 146.5 1 Z " />
<path fill="rgb(0,0,0)" stroke="rgb(0,0,0)" stroke-width="1" opacity="1" d="M 242.5 1 L 262.5 1 L 272 4 L 272 17.5 L 270.5 18 Q 262.9 10.6 246.5 12 Q 236 14.5 230 21.5 L 224 31.5 L 222 39.5 L 222 53.5 L 227 67.5 L 234.5 75 L 242.5 79 L 253.5 80 L 264.5 77 L 271.5 72 L 272 84.5 L 269.5 87 L 261.5 90 L 256.5 91 L 241.5 91 Q 224.4 87.6 216 75.5 Q 206.7 63.8 208 41.5 L 210 31.5 L 214 21.5 L 224.5 9 Q 231.8 3.3 242.5 1 Z " />
<path fill="rgb(0,0,0)" stroke="rgb(0,0,0)" stroke-width="1" opacity="1" d="M 327.5 1 L 347.5 1 L 358 5.5 L 357.5 19 Q 349.6 10.9 332.5 12 Q 319.9 14.4 314 23.5 L 308 36.5 L 307 49.5 L 309 60.5 Q 312.5 69.5 319.5 75 L 328.5 79 L 338.5 80 L 347.5 78 L 356.5 73 L 357 86 L 341.5 91 L 327.5 91 Q 311.1 88.4 303 77.5 Q 296.4 69.6 294 57.5 L 294 37.5 Q 297.6 17.6 311.5 8 Q 317.9 2.9 327.5 1 Z " />
<path fill="rgb(0,0,0)" stroke="rgb(0,0,0)" stroke-width="1" opacity="1" d="M 1 111 Q 3.7 109.9 3 112.5 L 7.5 131 L 9 129.5 L 13 111 Q 18.6 108.8 17 114.5 L 21.5 131 L 24 124.5 L 26 112.5 L 27.5 111 L 29 111.5 L 23 134 Q 18.5 135.8 20 130.5 L 16 114 Q 13 112.8 14 116.5 L 10 132.5 L 8.5 134 L 6 132.5 L 1 111 Z " />
<path fill="rgb(0,0,0)" stroke="rgb(0,0,0)" stroke-width="1" opacity="1" d="M 78 111 L 80 111.5 L 80 134 Q 77.3 135.1 78 132.5 L 75.5 134 Q 68.3 135.3 67 130.5 L 66 124.5 L 67 120.5 L 69.5 118 L 74.5 117 L 78 119 L 78 111 Z M 72 119 L 68 125 L 70 132 L 75 133 Q 79 131 78 123 Q 77 118 72 119 Z " />
<path fill="rgb(0,0,0)" stroke="rgb(0,0,0)" stroke-width="1" opacity="1" d="M 181 111 Q 184.3 109.9 183 114 Q 179.7 115.1 181 111 Z " />
<path fill="rgb(0,0,0)" stroke="rgb(0,0,0)" stroke-width="1" opacity="1" d="M 203 111 L 205 111.5 L 205 118.5 L 206.5 118 L 211.5 117 L 214 118 L 215 120.5 L 215 134 L 213 133.5 L 213 121.5 Q 212.3 118.3 207.5 119 L 205 121.5 L 205 134 L 203 133.5 L 203 111 Z " />
<path fill="rgb(0,0,0)" stroke="rgb(0,0,0)" stroke-width="1" opacity="1" d="M 314 111 Q 317.3 109.9 316 114 Q 312.7 115.1 314 111 Z " />
<path fill="rgb(0,0,0)" stroke="rgb(0,0,0)" stroke-width="1" opacity="1" d="M 192.5 112 L 193 118 L 196 118.5 L 193 119 L 193 131.5 L 196 132 L 196 134 Q 192.2 135 191 132.5 L 191 119.5 L 189.5 119 L 189.5 118 Q 192.9 118.9 191 113.5 L 192.5 112 Z " />
<path fill="rgb(0,0,0)" stroke="rgb(0,0,0)" stroke-width="1" opacity="1" d="M 39.5 117 Q 45.7 116.3 47 120.5 L 48 126 L 36.5 126 L 36 128.5 L 38.5 132 L 42.5 133 L 48 129 L 44.5 134 Q 36.8 135.8 35 131.5 L 34 122.5 L 37.5 118 L 39.5 117 Z M 40 119 L 36 123 L 37 125 L 46 125 L 45 121 Q 44 118 40 119 Z " />
<path fill="rgb(0,0,0)" stroke="rgb(0,0,0)" stroke-width="1" opacity="1" d="M 92.5 117 Q 98 116.5 100 119.5 L 102 125.5 L 101 130.5 L 97.5 134 Q 90.3 135.3 88 131.5 L 87 122.5 L 90.5 118 L 92.5 117 Z M 93 119 L 89 124 L 90 131 L 96 133 Q 101 131 99 122 Q 98 118 93 119 Z " />
<path fill="rgb(0,0,0)" stroke="rgb(0,0,0)" stroke-width="1" opacity="1" d="M 240.5 117 Q 245.6 116.4 247 119.5 L 249 126.5 L 248 130.5 L 244.5 134 Q 238.8 135.3 237.5 132 L 237 141 L 235 140.5 L 235 118 Q 237.7 116.9 237 119.5 L 240.5 117 Z M 241 119 L 238 120 L 237 123 Q 235 131 241 133 L 245 132 L 247 126 L 246 122 Q 245 118 241 119 Z " />
<path fill="rgb(0,0,0)" stroke="rgb(0,0,0)" stroke-width="1" opacity="1" d="M 260.5 117 Q 266.3 116.2 268 119.5 L 268 132.5 L 269 133.5 L 267 134 Q 268.1 131.3 265.5 132 Q 264 135.5 257.5 134 Q 254 133 255 127.5 L 258.5 125 Q 263.9 125.6 266 124 Q 267 120.2 264.5 119 Q 259.3 117.8 258 120.5 Q 258.8 123.1 255.5 122 L 256 120.5 L 257.5 118 L 260.5 117 Z M 262 126 L 257 129 Q 257 133 260 133 L 265 132 L 266 130 Q 268 124 262 126 Z " />
<path fill="rgb(0,0,0)" stroke="rgb(0,0,0)" stroke-width="1" opacity="1" d="M 279.5 117 Q 285.3 116.2 287 119.5 L 285.5 122 L 283.5 119 Q 279 118 278 120.5 L 279.5 124 L 285.5 125 L 288 127.5 Q 289 133 285.5 134 Q 277.7 135.8 276 131.5 Q 275 127.8 278 129 L 280.5 133 Q 285.3 133.8 286 130.5 Q 287.1 127.2 284.5 128 L 278.5 126 L 276 123.5 Q 275 119 277.5 118 L 279.5 117 Z " />
<path fill="rgb(0,0,0)" stroke="rgb(0,0,0)" stroke-width="1" opacity="1" d="M 298.5 117 Q 304.3 116.2 306 119.5 L 304.5 122 L 302.5 119 Q 298 118 297 120.5 L 298.5 124 Q 304.3 124.3 307 127.5 Q 308 133 304.5 134 Q 296.7 135.8 295 131.5 L 294 129.5 L 295.5 129 L 297 132 L 302.5 133 Q 305.8 131.8 305 128 L 297.5 126 L 295 123.5 Q 294 119 296.5 118 L 298.5 117 Z " />
<path fill="rgb(0,0,0)" stroke="rgb(0,0,0)" stroke-width="1" opacity="1" d="M 329.5 117 Q 335.7 116.3 337 120.5 L 338 129.5 L 335.5 133 L 327.5 134 L 324 130.5 L 323 125.5 L 326.5 118 L 329.5 117 Z M 329 119 L 326 122 Q 325 129 327 132 L 330 133 L 334 132 L 336 129 L 335 122 Q 334 118 329 119 Z " />
<path fill="rgb(0,0,0)" stroke="rgb(0,0,0)" stroke-width="1" opacity="1" d="M 350.5 117 Q 355.6 116.4 357 119.5 L 358 134 L 356 133.5 L 356 122.5 L 353.5 119 L 348 120 L 347 122.5 L 347 134 L 345 133.5 L 345 118 Q 347.7 116.9 347 119.5 L 350.5 117 Z " />
<path fill="rgb(0,0,0)" stroke="rgb(0,0,0)" stroke-width="1" opacity="1" d="M 153 118 Q 155.7 116.9 155 119.5 L 158.5 131 L 162 118 Q 166.1 116.3 165 120.5 L 168.5 131 L 172 118 Q 174.7 116.9 174 119.5 L 168.5 134 Q 166.3 134.8 167 132.5 L 163.5 121 L 160 134 Q 155.5 135.8 157 130.5 L 153 118 Z " />
<path fill="rgb(0,0,0)" stroke="rgb(0,0,0)" stroke-width="1" opacity="1" d="M 181 118 L 183 118.5 L 183 134 L 181 133.5 L 181 118 Z " />
<path fill="rgb(0,0,0)" stroke="rgb(0,0,0)" stroke-width="1" opacity="1" d="M 314 118 L 316 118.5 L 316 134 L 314 133.5 L 314 118 Z " />
<path fill="rgb(151,114,115)" stroke="rgb(151,114,115)" stroke-width="1" opacity="1" d="M 150.5 0 L 153 0.5 L 150.5 1 L 150.5 0 Z " />
<path fill="rgb(151,114,115)" stroke="rgb(151,114,115)" stroke-width="1" opacity="1" d="M 156.5 0 L 160 0.5 L 156.5 1 L 156.5 0 Z " />
<path fill="rgb(151,114,115)" stroke="rgb(151,114,115)" stroke-width="1" opacity="1" d="M 246.5 0 L 250 0.5 L 246.5 1 L 246.5 0 Z " />
<path fill="rgb(151,114,115)" stroke="rgb(151,114,115)" stroke-width="1" opacity="1" d="M 254.5 0 L 259 0.5 L 254.5 1 L 254.5 0 Z " />
<path fill="rgb(151,114,115)" stroke="rgb(151,114,115)" stroke-width="1" opacity="1" d="M 332.5 0 L 336 0.5 L 332.5 1 L 332.5 0 Z " />
<path fill="rgb(151,114,115)" stroke="rgb(151,114,115)" stroke-width="1" opacity="1" d="M 340.5 0 L 344 0.5 L 340.5 1 L 340.5 0 Z " />
<path fill="rgb(151,114,115)" stroke="rgb(151,114,115)" stroke-width="1" opacity="1" d="M 126.5 2 L 127 15.5 L 126 15.5 L 126.5 2 Z " />
<path fill="rgb(151,114,115)" stroke="rgb(151,114,115)" stroke-width="1" opacity="1" d="M 112.5 3 L 113 88.5 L 112 88.5 L 112.5 3 Z " />
<path fill="rgb(151,114,115)" stroke="rgb(151,114,115)" stroke-width="1" opacity="1" d="M 58.5 4 L 56.5 7 L 58.5 4 Z " />
<path fill="rgb(151,114,115)" stroke="rgb(151,114,115)" stroke-width="1" opacity="1" d="M 272.5 5 L 273 19 L 271 18.5 L 272 17.5 L 272.5 5 Z " />
<path fill="rgb(151,114,115)" stroke="rgb(151,114,115)" stroke-width="1" opacity="1" d="M 173.5 6 L 175.5 9 L 173.5 6 Z " />
<path fill="rgb(151,114,115)" stroke="rgb(151,114,115)" stroke-width="1" opacity="1" d="M 254.5 12 L 257 12.5 L 254.5 13 L 254.5 12 Z " />
<path fill="rgb(151,114,115)" stroke="rgb(151,114,115)" stroke-width="1" opacity="1" d="M 332.5 12 L 335 12.5 L 332.5 13 L 332.5 12 Z " />
<path fill="rgb(151,114,115)" stroke="rgb(151,114,115)" stroke-width="1" opacity="1" d="M 304.5 14 L 303.5 16 L 304.5 14 Z " />
<path fill="rgb(151,114,115)" stroke="rgb(151,114,115)" stroke-width="1" opacity="1" d="M 162.5 16 L 163.5 18 L 162.5 16 Z " />
<path fill="rgb(151,114,115)" stroke="rgb(151,114,115)" stroke-width="1" opacity="1" d="M 320.5 17 L 319.5 19 L 320.5 17 Z " />
<path fill="rgb(151,114,115)" stroke="rgb(151,114,115)" stroke-width="1" opacity="1" d="M 315.5 22 L 314.5 24 L 315.5 22 Z " />
<path fill="rgb(151,114,115)" stroke="rgb(151,114,115)" stroke-width="1" opacity="1" d="M 183.5 29 L 184 32.5 L 183 32.5 L 183.5 29 Z " />
<path fill="rgb(151,114,115)" stroke="rgb(151,114,115)" stroke-width="1" opacity="1" d="M 56.5 31 L 58.5 34 L 56.5 31 Z " />
<path fill="rgb(151,114,115)" stroke="rgb(151,114,115)" stroke-width="1" opacity="1" d="M 169.5 33 L 170 36.5 L 169 36.5 L 169.5 33 Z " />
<path fill="rgb(151,114,115)" stroke="rgb(151,114,115)" stroke-width="1" opacity="1" d="M 126.5 37 L 127 88.5 L 126 88.5 L 126.5 37 Z " />
<path fill="rgb(151,114,115)" stroke="rgb(151,114,115)" stroke-width="1" opacity="1" d="M 222.5 40 L 223 42.5 L 222 42.5 L 222.5 40 Z " />
<path fill="rgb(151,114,115)" stroke="rgb(151,114,115)" stroke-width="1" opacity="1" d="M 293.5 41 L 294 53.5 L 293 53.5 L 293.5 41 Z " />
<path fill="rgb(151,114,115)" stroke="rgb(151,114,115)" stroke-width="1" opacity="1" d="M 222.5 50 L 223 52.5 L 222 52.5 L 222.5 50 Z " />
<path fill="rgb(151,114,115)" stroke="rgb(151,114,115)" stroke-width="1" opacity="1" d="M 6.5 56 L 5.5 58 L 6.5 56 Z " />
<path fill="rgb(151,114,115)" stroke="rgb(151,114,115)" stroke-width="1" opacity="1" d="M 314.5 69 L 318.5 74 L 314.5 69 Z " />
<path fill="rgb(151,114,115)" stroke="rgb(151,114,115)" stroke-width="1" opacity="1" d="M 356.5 72 L 358 73.5 L 358 83.5 L 357 83.5 L 357 73.5 L 356.5 72 Z " />
<path fill="rgb(151,114,115)" stroke="rgb(151,114,115)" stroke-width="1" opacity="1" d="M 217.5 77 L 222.5 83 L 217.5 77 Z " />
<path fill="rgb(151,114,115)" stroke="rgb(151,114,115)" stroke-width="1" opacity="1" d="M 17.5 89 L 22 89.5 L 17.5 90 L 17.5 89 Z " />
<path fill="rgb(151,114,115)" stroke="rgb(151,114,115)" stroke-width="1" opacity="1" d="M 65.5 89 L 71 89.5 L 65.5 90 L 65.5 89 Z " />
<path fill="rgb(151,114,115)" stroke="rgb(151,114,115)" stroke-width="1" opacity="1" d="M 77.5 111 L 78 119 L 75 117.5 L 77 117.5 L 77.5 111 Z " />
<path fill="rgb(151,114,115)" stroke="rgb(151,114,115)" stroke-width="1" opacity="1" d="M 120.5 111 L 121 113.5 L 120 113.5 L 120.5 111 Z " />
<path fill="rgb(151,114,115)" stroke="rgb(151,114,115)" stroke-width="1" opacity="1" d="M 316.5 111 L 317 113.5 L 316 113.5 L 316.5 111 Z " />
<path fill="rgb(151,114,115)" stroke="rgb(151,114,115)" stroke-width="1" opacity="1" d="M 133.5 112 L 134 116.5 L 133 116.5 L 133.5 112 Z " />
<path fill="rgb(151,114,115)" stroke="rgb(151,114,115)" stroke-width="1" opacity="1" d="M 193.5 112 L 194 116.5 L 193 116.5 L 193.5 112 Z " />
<path fill="rgb(151,114,115)" stroke="rgb(151,114,115)" stroke-width="1" opacity="1" d="M 14.5 114 L 15.5 116 L 14.5 114 Z " />
<path fill="rgb(151,114,115)" stroke="rgb(151,114,115)" stroke-width="1" opacity="1" d="M 120.5 117 L 121 133.5 L 120 133.5 L 120.5 117 Z " />
<path fill="rgb(151,114,115)" stroke="rgb(151,114,115)" stroke-width="1" opacity="1" d="M 316.5 117 L 317 133.5 L 316 133.5 L 316.5 117 Z " />
<path fill="rgb(151,114,115)" stroke="rgb(151,114,115)" stroke-width="1" opacity="1" d="M 36.5 118 L 35.5 120 L 36.5 118 Z " />
<path fill="rgb(151,114,115)" stroke="rgb(151,114,115)" stroke-width="1" opacity="1" d="M 45.5 118 L 46.5 120 L 45.5 118 Z " />
<path fill="rgb(151,114,115)" stroke="rgb(151,114,115)" stroke-width="1" opacity="1" d="M 89.5 118 L 88.5 120 L 89.5 118 Z " />
<path fill="rgb(151,114,115)" stroke="rgb(151,114,115)" stroke-width="1" opacity="1" d="M 335.5 118 L 336.5 120 L 335.5 118 Z " />
<path fill="rgb(151,114,115)" stroke="rgb(151,114,115)" stroke-width="1" opacity="1" d="M 193.5 119 L 194 130.5 L 193 130.5 L 193.5 119 Z " />
<path fill="rgb(151,114,115)" stroke="rgb(151,114,115)" stroke-width="1" opacity="1" d="M 259.5 119 L 258.5 121 L 259.5 119 Z " />
<path fill="rgb(151,114,115)" stroke="rgb(151,114,115)" stroke-width="1" opacity="1" d="M 353.5 119 L 354.5 121 L 353.5 119 Z " />
<path fill="rgb(151,114,115)" stroke="rgb(151,114,115)" stroke-width="1" opacity="1" d="M 133.5 120 L 134 130.5 L 133 130.5 L 133.5 120 Z " />
<path fill="rgb(151,114,115)" stroke="rgb(151,114,115)" stroke-width="1" opacity="1" d="M 268.5 120 L 269 131.5 L 268 131.5 L 268.5 120 Z " />
<path fill="rgb(151,114,115)" stroke="rgb(151,114,115)" stroke-width="1" opacity="1" d="M 215.5 123 L 216 133.5 L 215 133.5 L 215.5 123 Z " />
<path fill="rgb(151,114,115)" stroke="rgb(151,114,115)" stroke-width="1" opacity="1" d="M 335.5 123 L 336 127.5 L 335 127.5 L 335.5 123 Z " />
<path fill="rgb(151,114,115)" stroke="rgb(151,114,115)" stroke-width="1" opacity="1" d="M 347.5 123 L 348 133.5 L 347 133.5 L 347.5 123 Z " />

<path fill="rgb(151,114,115)" stroke="rgb(151,114,115)" stroke-width="1" opacity="1" d="M 355.5 123 L 356 133.5 L 355 133.5 L 355.5 123 Z " />
<path fill="rgb(151,114,115)" stroke="rgb(151,114,115)" stroke-width="1" opacity="1" d="M 48.5 124 L 49 125.5 L 47.5 127 L 36.5 127 L 36.5 126 L 47.5 126 L 48.5 124 Z " />
<path fill="rgb(151,114,115)" stroke="rgb(151,114,115)" stroke-width="1" opacity="1" d="M 276.5 124 L 277.5 126 L 276.5 124 Z " />
<path fill="rgb(151,114,115)" stroke="rgb(151,114,115)" stroke-width="1" opacity="1" d="M 295.5 124 L 296.5 126 L 295.5 124 Z " />
<path fill="rgb(151,114,115)" stroke="rgb(151,114,115)" stroke-width="1" opacity="1" d="M 8.5 128 L 8 129.5 L 7.5 131 L 7 129.5 L 8.5 128 Z " />
<path fill="rgb(151,114,115)" stroke="rgb(151,114,115)" stroke-width="1" opacity="1" d="M 37.5 130 L 38.5 132 L 37.5 130 Z " />
<path fill="rgb(151,114,115)" stroke="rgb(151,114,115)" stroke-width="1" opacity="1" d="M 90.5 130 L 91.5 132 L 90.5 130 Z " />
<path fill="rgb(151,114,115)" stroke="rgb(151,114,115)" stroke-width="1" opacity="1" d="M 334.5 130 L 333.5 132 L 334.5 130 Z " />
<path fill="rgb(151,114,115)" stroke="rgb(151,114,115)" stroke-width="1" opacity="1" d="M 247.5 131 L 245.5 134 L 247.5 131 Z " />
<path fill="rgb(151,114,115)" stroke="rgb(151,114,115)" stroke-width="1" opacity="1" d="M 40.5 132 L 43 132.5 L 40.5 133 L 40.5 132 Z " />
<path fill="rgb(151,114,115)" stroke="rgb(151,114,115)" stroke-width="1" opacity="1" d="M 77.5 132 L 76.5 134 L 77.5 132 Z " />
<path fill="rgb(151,114,115)" stroke="rgb(151,114,115)" stroke-width="1" opacity="1" d="M 259.5 132 L 262 132.5 L 259.5 133 L 259.5 132 Z " />
<path fill="rgb(151,114,115)" stroke="rgb(151,114,115)" stroke-width="1" opacity="1" d="M 265.5 132 L 266.5 134 L 264 133.5 L 265.5 132 Z " />
<path fill="rgb(151,114,115)" stroke="rgb(151,114,115)" stroke-width="1" opacity="1" d="M 276.5 132 L 277.5 134 L 276.5 132 Z " />
<path fill="rgb(151,114,115)" stroke="rgb(151,114,115)" stroke-width="1" opacity="1" d="M 299.5 132 L 302 132.5 L 299.5 133 L 299.5 132 Z " />
<path fill="rgb(151,114,115)" stroke="rgb(151,114,115)" stroke-width="1" opacity="1" d="M 196.5 133 L 195.5 135 L 193 134.5 L 196.5 133 Z " />
<path fill="rgb(151,114,115)" stroke="rgb(151,114,115)" stroke-width="1" opacity="1" d="M 237 133 L 239 133.5 L 237.5 141 L 237 133 Z " />
<path fill="rgb(236,24,32)" stroke="rgb(236,24,32)" stroke-width="1" opacity="1" d="M 19.5 0 Q 33.8 -0.3 39 8.5 L 43 17.5 L 45 30.5 Q 47.6 37.9 53.5 42 L 59.5 45 L 77.5 49 L 86 55.5 Q 90.2 60.8 90 70.5 Q 88.4 81.4 80.5 86 Q 74.7 91.2 61.5 89 L 52 84 L 47 73.5 L 47 64.5 L 45 56.5 L 41 50 L 32.5 45 L 13.5 41 L 5 34.5 Q 0 29.5 0 19.5 L 1 14.5 L 6 6 L 14.5 1 L 19.5 0 Z " />
<path fill="rgb(236,24,32)" stroke="rgb(236,24,32)" stroke-width="1" opacity="1" d="M 68.5 0 Q 82.4 -0.4 87 8.5 L 90 16.5 L 90 21.5 Q 88.3 30.8 81.5 35 L 73.5 38 L 67.5 38 Q 58.4 35.5 54 28.5 Q 50.7 23.8 52 14.5 Q 54.1 6.6 60.5 3 L 68.5 0 Z " />
<path fill="rgb(236,24,32)" stroke="rgb(236,24,32)" stroke-width="1" opacity="1" d="M 14.5 52 Q 29.7 50.8 35 59.5 Q 39.4 64.7 38 75.5 Q 35.4 82.9 29.5 87 Q 24.1 90.6 13.5 89 L 4 82.5 Q 0 77.5 0 68.5 Q 2 58.5 9.5 54 L 14.5 52 Z " />
<path fill="rgb(236,24,32)" stroke="rgb(236,24,32)" stroke-width="1" opacity="1" d="M 121 111 Q 124.3 109.9 123 114 Q 119.7 115.1 121 111 Z " />
<path fill="rgb(236,24,32)" stroke="rgb(236,24,32)" stroke-width="1" opacity="1" d="M 132.5 112 L 133 117 Q 137.1 115.7 136 119 L 133 120.5 L 133 130.5 L 134.5 132 Q 137.1 131.3 136 134 Q 132.2 135 131 132.5 L 131 119.5 Q 128.3 120.1 129 117 Q 132.3 118.3 131 113.5 L 132.5 112 Z " />
<path fill="rgb(236,24,32)" stroke="rgb(236,24,32)" stroke-width="1" opacity="1" d="M 121 117 L 123 117.5 L 123 134 L 121 133.5 L 121 117 Z " />
</svg>